<?xml version="1.0" standalone="no"?>
<!DOCTYPE svg PUBLIC "-//W3C//DTD SVG 20010904//EN"
 "http://www.w3.org/TR/2001/REC-SVG-20010904/DTD/svg10.dtd">
<svg version="1.0" xmlns="http://www.w3.org/2000/svg"
 width="250.000000pt" height="250.000000pt" viewBox="0 0 250.000000 250.000000"
 preserveAspectRatio="xMidYMid meet">
<metadata>
Created by potrace 1.11, written by Peter Selinger 2001-2013
</metadata>
<g transform="translate(0.000000,250.000000) scale(0.100000,-0.100000)"
fill="#000000" stroke="none">
<path d="M1564 2468 l-19 -21 26 17 c29 18 129 21 162 4 10 -5 17 -5 17 1 0
15 -28 21 -99 21 -57 0 -71 -3 -87 -22z"/>
<path d="M873 2406 c-3 -4 6 -19 21 -32 26 -25 34 -44 16 -44 -5 0 -13 6 -17
14 -10 17 -106 29 -100 12 2 -6 22 -10 46 -8 32 2 41 0 35 -10 -14 -22 -13
-38 1 -38 24 0 26 -19 4 -31 -18 -9 -25 -9 -34 5 -14 18 -25 11 -25 -16 0 -19
-25 -25 -35 -8 -5 8 -11 7 -21 -1 -10 -8 -11 -16 -3 -30 8 -15 6 -21 -7 -26
-26 -10 -74 49 -74 90 0 41 -4 45 -35 39 -15 -2 -25 -11 -25 -21 0 -9 -5 -22
-12 -29 -9 -9 -5 -16 15 -32 15 -12 27 -30 27 -40 0 -10 5 -22 10 -25 6 -3 10
-15 10 -26 0 -10 -4 -19 -10 -19 -5 0 -10 -5 -10 -10 0 -6 8 -10 18 -8 18 3
21 -21 7 -55 -5 -13 -3 -17 6 -15 9 2 14 -6 13 -22 -1 -14 4 -28 9 -32 16 -10
-22 -48 -48 -48 -17 0 -21 -6 -22 -35 -1 -28 3 -35 18 -35 11 0 19 -7 19 -16
0 -9 6 -14 13 -11 6 2 12 15 12 28 0 13 6 24 12 24 7 0 26 12 42 28 34 31 47
33 73 10 10 -9 42 -18 73 -21 38 -3 55 -9 55 -18 0 -11 -15 -14 -67 -12 -88 4
-135 -14 -127 -48 4 -14 1 -31 -7 -41 -13 -14 -11 -16 14 -11 24 5 27 2 27
-23 0 -15 5 -29 12 -31 17 -6 0 -28 -21 -28 -10 0 -24 7 -31 15 -12 14 -15 13
-31 -4 -10 -10 -23 -21 -30 -23 -8 -3 -2 -16 18 -36 l31 -33 36 17 c20 10 36
21 36 26 0 4 6 8 14 8 8 0 23 14 34 31 16 26 18 36 8 60 -13 36 -1 59 38 72
35 12 44 2 21 -23 -16 -18 -18 -31 -12 -89 1 -11 7 -16 17 -14 10 3 22 -6 30
-22 14 -26 15 -26 30 -7 34 41 90 36 90 -10 0 -16 -5 -18 -35 -12 -34 6 -34 5
-32 -26 2 -31 3 -32 40 -26 29 5 37 3 37 -9 0 -28 19 -15 39 25 16 34 17 41 4
51 -7 7 -12 18 -9 25 3 7 1 16 -5 20 -6 3 -14 17 -20 31 -8 21 -13 24 -39 18
-40 -9 -49 15 -21 51 12 15 21 33 21 40 0 7 13 20 30 29 63 32 65 77 8 192
-31 63 -39 90 -31 101 17 28 33 25 33 -7 0 -19 9 -39 25 -55 l26 -26 -7 53
c-6 53 -24 77 -55 77 -19 0 -34 -16 -44 -48 -5 -16 6 -48 40 -116 51 -102 52
-125 8 -145 -24 -11 -30 -8 -72 27 -31 26 -52 55 -64 88 -18 48 -18 49 2 65
11 9 18 19 14 22 -13 13 8 57 27 57 16 0 20 7 20 34 0 18 7 39 15 46 8 7 13
16 10 20 -3 5 1 15 9 23 18 18 11 51 -21 94 -24 31 -27 32 -90 30 -36 -1 -67
-6 -70 -11z"/>
<path d="M1584 2404 c3 -9 6 -18 6 -20 0 -3 4 -3 10 1 11 7 2 35 -12 35 -6 0
-7 -7 -4 -16z"/>
<path d="M1703 2406 c-10 -11 -9 -15 2 -20 8 -3 15 -4 15 -2 0 3 3 11 6 20 7
19 -7 20 -23 2z"/>
<path d="M1550 2404 c0 -6 3 -14 7 -17 3 -4 8 -36 10 -71 3 -58 1 -66 -19 -80
-25 -18 -17 -21 13 -6 11 7 19 21 19 37 0 14 8 32 18 39 16 13 16 14 0 8 -15
-5 -18 0 -18 28 0 30 -29 90 -30 62z"/>
<path d="M1427 2382 c-19 -20 -23 -62 -7 -62 6 0 8 10 5 23 -9 34 16 51 65 44
22 -3 40 -1 40 4 0 18 -86 10 -103 -9z"/>
<path d="M1770 2390 c-8 -5 -11 -12 -7 -16 3 -4 13 -2 21 5 21 17 76 10 92
-13 16 -24 19 -14 4 15 -8 14 -21 19 -53 19 -23 0 -49 -4 -57 -10z"/>
<path d="M1440 2340 c0 -5 5 -10 11 -10 5 0 7 5 4 10 -3 6 -8 10 -11 10 -2 0
-4 -4 -4 -10z"/>
<path d="M1510 2340 c0 -5 5 -10 10 -10 6 0 10 5 10 10 0 6 -4 10 -10 10 -5 0
-10 -4 -10 -10z"/>
<path d="M1637 2333 c-9 -32 -1 -68 16 -71 14 -3 17 5 17 42 0 33 -4 46 -14
46 -8 0 -17 -8 -19 -17z"/>
<path d="M1764 2298 c2 -35 0 -48 -10 -48 -8 0 -11 6 -7 17 4 11 3 14 -5 9 -7
-4 -12 -17 -12 -30 0 -32 42 -28 51 5 6 23 6 23 11 -6 5 -28 5 -27 7 8 0 23
-3 36 -9 32 -5 -3 -10 2 -10 12 0 10 -5 25 -10 33 -7 11 -9 1 -6 -32z"/>
<path d="M1516 2312 c5 -4 12 -11 15 -15 3 -5 9 -2 12 5 3 9 -3 14 -15 15 -11
1 -16 -1 -12 -5z"/>
<path d="M1700 2310 c0 -5 5 -10 11 -10 5 0 7 5 4 10 -3 6 -8 10 -11 10 -2 0
-4 -4 -4 -10z"/>
<path d="M1871 2298 c-7 -41 -3 -110 7 -104 4 2 16 -2 26 -9 14 -10 17 -23 14
-49 -2 -20 0 -36 4 -36 4 0 8 17 8 39 0 30 -5 42 -24 55 -20 13 -26 26 -29 68
-2 29 -5 45 -6 36z"/>
<path d="M1450 2259 c0 -5 5 -7 10 -4 6 3 10 8 10 11 0 2 -4 4 -10 4 -5 0 -10
-5 -10 -11z"/>
<path d="M1458 2223 c7 -3 16 -2 19 1 4 3 -2 6 -13 5 -11 0 -14 -3 -6 -6z"/>
<path d="M1420 2205 c-11 -13 -10 -14 4 -9 9 3 16 10 16 15 0 13 -6 11 -20 -6z"/>
<path d="M1713 2046 c9 -10 15 -22 12 -27 -4 -5 -7 -27 -8 -49 -2 -32 1 -40
14 -40 10 0 25 -3 34 -7 14 -5 16 -3 8 13 -5 10 -8 40 -8 67 1 38 -2 47 -16
47 -10 0 -26 3 -36 7 -17 7 -17 6 0 -11z"/>
<path d="M1538 1985 c-2 -51 0 -64 10 -60 8 3 20 5 28 5 10 0 13 7 8 25 -4 17
-2 25 7 25 10 0 10 3 1 12 -7 7 -12 22 -12 35 0 16 -6 23 -19 23 -17 0 -20 -9
-23 -65z"/>
<path d="M1460 1996 c0 -2 7 -6 15 -10 8 -3 15 -1 15 4 0 6 -7 10 -15 10 -8 0
-15 -2 -15 -4z"/>
<path d="M1818 1993 c6 -2 18 -2 25 0 6 3 1 5 -13 5 -14 0 -19 -2 -12 -5z"/>
<path d="M1410 1890 c0 -5 5 -10 11 -10 5 0 7 5 4 10 -3 6 -8 10 -11 10 -2 0
-4 -4 -4 -10z"/>
<path d="M1870 1880 c-9 -6 -10 -10 -3 -10 6 0 15 5 18 10 8 12 4 12 -15 0z"/>
<path d="M1404 1831 c3 -5 15 -7 26 -4 28 7 25 13 -6 13 -14 0 -23 -4 -20 -9z"/>
<path d="M1868 1833 c7 -3 16 -2 19 1 4 3 -2 6 -13 5 -11 0 -14 -3 -6 -6z"/>
<path d="M1835 1820 c3 -5 8 -10 11 -10 2 0 4 5 4 10 0 6 -5 10 -11 10 -5 0
-7 -4 -4 -10z"/>
<path d="M1410 1791 c0 -5 7 -12 16 -15 14 -5 15 -4 4 9 -14 17 -20 19 -20 6z"/>
<path d="M1362 1767 c-24 -26 -29 -74 -9 -100 10 -15 11 -10 9 32 -3 39 0 53
17 70 12 12 17 21 13 21 -5 0 -18 -10 -30 -23z"/>
<path d="M1622 1768 c-7 -7 -12 -42 -12 -85 l0 -73 -81 0 c-65 0 -88 4 -115
21 -19 11 -34 18 -34 15 0 -3 20 -17 43 -31 43 -24 48 -25 240 -25 120 0 198
4 202 10 4 6 -25 10 -79 10 l-86 0 0 73 c0 77 -9 97 -45 97 -12 0 -26 -5 -33
-12z"/>
<path d="M1937 1765 c6 -11 10 -41 9 -67 -2 -26 1 -45 6 -42 16 10 9 101 -9
115 -15 13 -15 12 -6 -6z"/>
<path d="M1401 1734 c0 -11 3 -14 6 -6 3 7 2 16 -1 19 -3 4 -6 -2 -5 -13z"/>
<path d="M1505 1720 c-3 -5 -1 -10 4 -10 6 0 11 5 11 10 0 6 -2 10 -4 10 -3 0
-8 -4 -11 -10z"/>
<path d="M1582 1700 c0 -19 2 -27 5 -17 2 9 2 25 0 35 -3 9 -5 1 -5 -18z"/>
<path d="M1894 1629 c-19 -22 -19 -22 4 -10 12 6 22 16 22 21 0 15 -5 12 -26
-11z"/>
<path d="M1278 1463 c6 -2 18 -2 25 0 6 3 1 5 -13 5 -14 0 -19 -2 -12 -5z"/>
<path d="M678 1381 c-52 -33 -78 -74 -78 -121 0 -38 5 -38 37 1 14 17 50 44
79 61 l54 30 -15 29 c-9 16 -19 29 -23 29 -5 0 -29 -13 -54 -29z"/>
<path d="M1538 1351 c4 -57 -14 -81 -78 -100 -21 -6 -42 -15 -44 -20 -3 -5 11
-3 32 5 20 7 44 13 53 14 9 0 23 8 31 18 20 23 29 96 14 117 -9 12 -10 5 -8
-34z"/>
<path d="M341 1210 c-36 -16 -82 -51 -76 -59 2 -5 28 -11 56 -15 43 -6 49 -9
39 -21 -9 -11 -9 -15 -1 -15 6 0 14 7 17 15 8 19 64 20 88 2 18 -13 18 -14 0
-21 -15 -6 -16 -9 -4 -16 9 -6 18 -3 27 8 20 27 15 59 -14 92 -31 34 -90 48
-132 30z"/>
<path d="M1790 1185 c0 -10 10 -34 23 -54 20 -33 22 -34 25 -14 4 26 -18 75
-35 81 -7 2 -13 -4 -13 -13z"/>
<path d="M1305 1141 c-3 -6 -26 -11 -51 -11 -24 0 -44 -4 -44 -10 0 -16 86
-12 100 5 7 9 10 18 7 21 -3 3 -8 1 -12 -5z"/>
<path d="M2086 1121 c-16 -17 -31 -21 -81 -21 -67 0 -79 -7 -90 -53 -6 -23 -4
-26 9 -21 9 3 36 1 61 -5 29 -7 52 -8 69 -1 30 11 58 62 54 97 l-3 25 -19 -21z"/>
<path d="M1278 1023 c7 -3 16 -2 19 1 4 3 -2 6 -13 5 -11 0 -14 -3 -6 -6z"/>
<path d="M778 1015 c-3 -3 -32 -7 -65 -9 -47 -3 -70 -11 -116 -40 -33 -21 -67
-36 -80 -34 -16 2 -24 -4 -31 -25 -13 -35 -2 -55 47 -80 l37 -19 47 39 c26 21
52 42 58 46 10 9 51 35 118 77 51 32 58 50 20 50 -17 0 -32 -2 -35 -5z"/>
<path d="M2182 978 c-16 -16 -15 -70 1 -91 10 -14 16 -15 37 -4 27 14 28 30 7
80 -13 29 -26 34 -45 15z"/>
<path d="M1665 900 c3 -5 14 -10 23 -10 15 0 15 2 2 10 -20 13 -33 13 -25 0z"/>
<path d="M983 877 c-40 -13 -63 -27 -66 -39 -6 -20 4 -22 50 -9 20 6 35 6 38
0 4 -5 0 -9 -7 -9 -8 0 -9 -3 -3 -8 14 -9 17 -55 4 -47 -5 4 -9 1 -9 -4 0 -6
5 -11 10 -11 6 0 9 -31 8 -77 0 -43 -3 -63 -5 -45 -2 17 -10 32 -16 32 -7 0
-6 4 3 10 11 7 7 10 -17 10 -27 0 -31 -3 -26 -17 6 -15 5 -16 -9 -3 -9 8 -14
18 -12 21 2 4 -3 12 -11 19 -20 17 -61 5 -68 -20 -3 -13 -10 -18 -21 -14 -9 3
-16 1 -16 -5 0 -6 7 -11 15 -11 8 0 15 -5 15 -11 0 -5 -4 -7 -10 -4 -5 3 -10
2 -10 -3 0 -5 -12 -12 -27 -15 -26 -5 -26 -4 -8 9 10 8 14 14 9 14 -12 0 -34
-21 -34 -32 0 -4 7 -8 15 -8 17 0 20 -16 4 -25 -6 -4 -8 -12 -6 -19 5 -13 -18
-38 -27 -29 -3 4 -6 -5 -6 -18 0 -17 -3 -20 -9 -10 -5 8 -16 11 -30 6 -28 -9
-27 -25 2 -18 13 4 19 2 14 -3 -5 -5 -12 -9 -15 -9 -32 -3 -53 -19 -49 -37 3
-12 0 -21 -10 -25 -10 -4 -11 -8 -3 -13 6 -4 12 -18 13 -31 1 -13 8 -31 16
-39 12 -12 10 -15 -18 -23 -17 -4 -29 -12 -26 -17 3 -4 -1 -10 -7 -13 -10 -3
-10 -7 1 -21 12 -14 12 -16 -3 -10 -11 4 -16 1 -16 -10 0 -9 6 -16 13 -16 7 0
4 -7 -7 -15 -13 -10 -23 -11 -31 -5 -7 6 -15 6 -23 -2 -8 -8 -15 -8 -26 1 -10
8 -16 9 -21 1 -6 -9 1 -14 18 -11 4 0 7 -8 7 -19 0 -11 -4 -20 -9 -20 -5 0
-11 -7 -15 -15 -3 -8 0 -14 6 -12 7 1 13 -7 15 -18 3 -15 2 -16 -5 -7 -13 19
-23 -34 -12 -62 8 -20 8 -20 15 -2 5 11 3 21 -6 27 -12 7 -12 9 1 10 8 1 19 1
24 0 5 -1 13 4 17 11 4 7 11 9 15 5 9 -9 -16 -38 -27 -31 -12 7 -11 -3 1 -27
6 -10 16 -19 23 -19 7 0 6 4 -3 10 -9 6 -10 10 -3 10 6 0 15 -4 18 -10 10 -16
45 -12 45 6 0 13 3 14 13 5 38 -31 215 -34 1180 -21 17 1 25 5 21 11 -4 8 0 7
14 0 11 -6 52 -11 90 -11 55 0 71 3 76 16 6 15 8 15 24 1 13 -12 42 -17 109
-18 51 -2 95 0 99 4 4 4 18 4 32 0 15 -3 27 -1 33 8 6 10 13 11 26 3 10 -5 26
-8 37 -6 16 3 17 10 11 45 -4 23 -8 51 -9 63 -1 11 -6 26 -10 33 -4 7 -5 28
-2 47 6 31 5 34 -16 35 -22 1 -22 1 2 8 17 5 26 3 28 -6 4 -16 5 -16 37 -1 31
14 27 34 -6 31 -21 -2 -22 -2 -6 8 14 8 16 14 6 25 -10 12 -14 11 -26 -6 -8
-11 -19 -18 -24 -15 -5 3 -6 -1 -3 -9 3 -9 2 -16 -4 -16 -15 0 -21 22 -10 42
7 14 5 16 -9 11 -10 -3 -23 -10 -29 -14 -6 -5 -13 -7 -15 -4 -3 2 -5 -17 -4
-42 0 -30 5 -48 14 -51 8 -3 11 0 7 6 -3 6 -2 13 4 17 5 3 10 1 10 -4 0 -6 7
-11 15 -11 19 0 19 -24 1 -39 -10 -8 -16 -9 -21 -1 -3 5 2 10 12 11 13 0 14 2
4 6 -8 3 -20 -2 -27 -12 -8 -11 -21 -16 -34 -12 -11 3 -20 2 -20 -3 0 -4 9
-10 21 -13 23 -6 22 -28 -2 -36 -11 -3 -12 -2 -1 11 11 13 9 17 -13 22 -32 8
-32 20 1 35 15 6 24 14 21 17 -3 3 -15 1 -26 -6 -13 -6 -21 -7 -21 -1 0 5 9
13 20 16 11 3 20 11 20 16 0 6 -4 8 -9 5 -5 -3 -11 7 -14 22 -3 15 -1 29 4 30
5 2 9 8 9 14 0 6 -7 8 -15 5 -8 -4 -17 -1 -21 6 -4 7 -4 9 0 5 4 -3 17 3 28
14 15 15 23 17 33 8 19 -15 27 3 15 32 -10 23 -10 23 -6 0 2 -12 0 -20 -5 -16
-5 3 -9 12 -9 20 0 8 -4 14 -10 14 -5 0 -10 -4 -10 -10 0 -5 -5 -10 -10 -10
-7 0 -7 7 1 22 10 18 9 20 -4 15 -9 -3 -18 -1 -21 6 -3 7 -3 -1 -1 -18 3 -16
9 -31 15 -33 19 -7 10 -20 -10 -15 -14 4 -20 14 -20 32 0 15 -6 33 -12 40 -10
11 -10 13 0 7 6 -4 13 -2 13 3 1 6 2 17 3 24 1 6 -1 22 -6 34 -5 15 -2 27 7
37 13 12 12 16 -3 27 -9 7 -14 10 -10 5 4 -5 -3 -17 -15 -27 -19 -16 -20 -20
-7 -29 11 -7 11 -10 2 -10 -7 0 -15 7 -18 15 -7 18 -30 20 -38 3 -3 -10 -9 -8
-19 4 -8 10 -17 15 -20 11 -4 -3 -2 -13 5 -20 9 -11 9 -16 -1 -23 -9 -5 -11
-16 -6 -31 8 -24 7 -24 -13 -6 -12 11 -26 16 -33 11 -8 -4 -10 -3 -5 5 4 6 2
18 -4 26 -10 13 -8 15 14 15 19 0 26 5 26 20 0 12 7 20 16 20 10 0 14 5 10 16
-3 8 -2 12 4 9 6 -3 10 0 10 9 0 17 25 15 43 -4 9 -10 9 -11 0 -6 -15 8 -18
-20 -4 -29 10 -5 41 20 41 34 0 4 -11 18 -25 31 -14 13 -25 18 -25 12 0 -7 -8
-12 -17 -11 -11 0 -13 3 -5 6 6 2 10 9 6 14 -3 5 0 9 6 9 6 0 8 5 5 10 -3 6
-15 10 -26 10 -11 0 -18 4 -15 9 3 5 -1 11 -9 15 -9 3 -15 0 -15 -9 0 -10 -6
-12 -17 -8 -16 6 -16 5 -4 -10 8 -11 21 -15 32 -12 12 4 19 1 19 -6 0 -7 -3
-9 -6 -6 -4 3 -15 2 -25 -4 -11 -5 -18 -6 -17 -2 3 8 -5 13 -22 13 -7 0 -7 -6
0 -19 13 -25 13 -31 -1 -31 -5 0 -8 4 -5 9 3 5 -1 14 -9 21 -20 16 -19 20 11
55 15 17 23 24 20 18 -4 -7 -2 -13 3 -13 6 0 11 4 11 8 0 13 -40 47 -41 36 -1
-5 -2 -13 -4 -19 -1 -5 -3 -16 -3 -24 -1 -8 -8 -11 -18 -7 -13 5 -15 1 -10
-18 3 -14 2 -28 -4 -31 -5 -3 -10 -13 -10 -21 0 -21 -62 -75 -78 -69 -7 2 -15
-2 -18 -10 -9 -21 -23 -19 -21 4 0 11 7 17 14 14 8 -3 11 2 8 16 -2 12 0 21 6
21 5 0 9 -9 9 -21 0 -11 5 -17 10 -14 6 4 8 11 5 16 -4 5 2 9 13 9 19 0 27 29
8 31 -65 7 -74 4 -81 -26 -3 -16 -6 -38 -6 -48 0 -10 -7 -21 -15 -24 -21 -8
-17 -23 6 -23 11 0 20 -4 20 -10 0 -5 -7 -10 -16 -10 -8 0 -12 -5 -9 -10 3 -6
-3 -10 -14 -10 -12 0 -21 5 -21 10 0 6 5 10 12 10 6 0 8 3 5 6 -4 4 -13 1 -21
-5 -11 -9 -20 -10 -35 -2 -11 6 -26 9 -33 6 -9 -4 -13 2 -13 17 1 13 5 24 10
25 10 2 25 25 25 38 0 6 -4 4 -9 -4 -5 -7 -13 -11 -19 -7 -5 3 -12 -1 -16 -9
-3 -9 -18 -15 -36 -15 -17 0 -29 -4 -25 -10 3 -5 12 -7 20 -3 10 3 15 -1 14
-13 0 -11 -3 -14 -5 -8 -3 7 -13 10 -23 7 -14 -3 -20 2 -24 24 -6 32 9 56 22
34 6 -8 11 -9 15 -3 9 14 -33 42 -52 35 -10 -4 -13 -2 -8 5 5 8 2 10 -8 6 -9
-3 -16 -1 -16 5 0 6 -7 8 -17 4 -12 -5 -14 -3 -8 8 8 12 6 12 -8 1 -9 -8 -22
-10 -28 -6 -9 5 -10 2 -6 -9 3 -10 2 -17 -3 -17 -16 0 -22 21 -10 35 10 12 10
15 0 15 -7 0 -19 8 -26 17 -7 10 -16 14 -20 10 -5 -4 -2 -13 6 -18 11 -8 10
-9 -7 -4 -23 6 -32 -8 -13 -20 13 -8 13 -35 -1 -35 -5 0 -8 3 -5 8 4 8 -22 49
-27 41 -2 -2 -8 -15 -15 -29 -9 -20 -11 -21 -9 -5 2 21 -10 24 -51 11 -12 -4
-22 -4 -21 1 3 19 -2 23 -21 13 -27 -15 -25 -8 10 28 17 18 30 39 30 47 0 8
11 25 25 37 25 22 33 48 16 48 -6 0 -13 -5 -17 -12 -4 -7 -3 -8 4 -4 7 4 12 2
12 -3 0 -6 -6 -11 -13 -11 -7 0 -18 20 -25 45 -15 55 -48 80 -94 71 -18 -4
-44 -7 -58 -8 -26 -2 -42 -16 -33 -31 3 -4 13 -1 23 8 17 16 17 15 2 -29 -9
-24 -20 -42 -25 -39 -5 3 -4 -4 2 -16 15 -28 5 -44 -25 -38 -13 2 -24 0 -24
-5 0 -5 -9 -4 -19 2 -17 9 -19 21 -19 97 0 115 -1 123 -9 122 -5 0 -36 -10
-70 -22z m298 -93 c7 -9 13 -37 13 -64 0 -52 -16 -80 -44 -80 -28 0 -44 28
-44 79 -1 70 40 107 75 65z m-380 -106 c24 -27 24 -37 -1 -31 -11 3 -20 9 -20
13 0 5 -3 15 -6 24 -9 23 5 20 27 -6z m306 -67 c10 -6 13 -11 7 -11 -6 0 -17
7 -24 15 -7 8 -15 13 -19 11 -3 -2 -7 10 -8 27 l-2 32 14 -31 c7 -18 21 -37
32 -43z m-341 32 c-10 -10 -19 5 -10 18 6 11 8 11 12 0 2 -7 1 -15 -2 -18z
m81 -23 c-1 -12 -8 -20 -19 -20 -9 0 -24 -10 -34 -22 -15 -20 -16 -21 -10 -3
6 19 5 18 -13 -2 -14 -17 -21 -19 -31 -10 -10 10 -11 9 -5 -3 5 -10 5 -12 -3
-5 -16 15 -19 50 -4 48 6 -2 12 1 12 6 0 5 10 8 23 6 12 -2 36 2 52 10 17 7
31 14 32 14 1 1 1 -8 0 -19z m1073 -33 c0 -8 -10 -22 -22 -33 -13 -10 -17 -12
-10 -4 6 8 12 22 12 32 0 10 5 18 10 18 6 0 10 -6 10 -13z m-450 -36 c0 -5 -9
-11 -20 -14 -20 -5 -26 3 -13 16 9 10 33 8 33 -2z m480 -6 c-6 -8 -9 -18 -6
-24 7 -11 -13 -9 -32 2 -16 11 -6 28 12 21 8 -3 17 -1 21 5 3 6 9 11 12 11 3
0 0 -7 -7 -15z m-570 -15 c0 -5 -2 -10 -4 -10 -3 0 -8 5 -11 10 -3 6 -1 10 4
10 6 0 11 -4 11 -10z m525 -20 c3 -5 1 -10 -4 -10 -6 0 -11 5 -11 10 0 6 2 10
4 10 3 0 8 -4 11 -10z m-51 -15 c-3 -6 -17 -10 -32 -9 -38 3 -40 4 -19 13 27
10 55 8 51 -4z m74 -30 c2 -2 -1 -6 -6 -9 -5 -3 -18 4 -28 16 -19 21 -19 21 6
8 14 -7 26 -14 28 -15z m-1343 -15 c3 -5 -1 -10 -10 -10 -9 0 -13 5 -10 10 3
6 8 10 10 10 2 0 7 -4 10 -10z m1308 -5 c8 -8 18 -11 21 -7 8 8 26 -17 26 -36
0 -7 -5 -10 -10 -7 -6 4 -7 11 -4 17 5 7 0 9 -14 6 -12 -4 -22 -2 -22 2 0 5
-7 16 -16 24 -8 9 -11 16 -5 16 5 0 16 -7 24 -15z m137 5 c0 -5 -4 -10 -10
-10 -5 0 -10 5 -10 10 0 6 5 10 10 10 6 0 10 -4 10 -10z m-336 -53 c25 -10 16
-17 -31 -27 -31 -7 -35 -7 -21 4 17 13 19 39 3 53 -4 4 -5 3 -1 -4 3 -6 2 -14
-4 -18 -5 -3 -10 0 -10 8 0 24 14 29 30 10 8 -11 24 -22 34 -26z m-803 7 c-13
-9 -29 -31 -37 -48 -7 -17 -13 -23 -14 -14 0 20 47 78 63 78 6 0 1 -7 -12 -16z
m123 -15 c14 -17 26 -38 26 -47 -1 -9 -7 -3 -14 14 -8 17 -24 39 -37 48 -13 9
-18 16 -12 16 6 0 23 -14 37 -31z m713 -21 c-3 -8 -6 -5 -6 6 -1 11 2 17 5 13
3 -3 4 -12 1 -19z m233 3 c-11 -21 -29 -36 -36 -29 -5 6 29 48 39 48 4 0 3 -9
-3 -19z m71 -8 c-12 -20 -14 -14 -5 12 4 9 9 14 11 11 3 -2 0 -13 -6 -23z
m-612 14 c-2 -1 -15 -11 -29 -22 l-25 -20 19 23 c11 12 24 22 29 22 6 0 8 -1
6 -3z m97 -19 l19 -23 -25 20 c-14 11 -27 21 -29 22 -2 2 0 3 6 3 5 0 18 -10
29 -22z m404 12 c0 -5 -10 -10 -22 -9 -22 0 -22 1 -3 9 11 5 21 9 23 9 1 1 2
-3 2 -9z m-1006 -12 c-4 -6 -11 -25 -15 -42 -5 -25 -7 -26 -8 -8 -1 23 15 62
25 62 3 0 2 -5 -2 -12z m64 -13 c-3 -3 -9 2 -12 12 -6 14 -5 15 5 6 7 -7 10
-15 7 -18z m795 10 c-3 -9 -8 -14 -10 -11 -3 3 -2 9 2 15 9 16 15 13 8 -4z
m-59 -4 c3 -5 -1 -11 -9 -14 -9 -4 -12 -1 -8 9 6 16 10 17 17 5z m116 -10 c0
-6 -4 -13 -10 -16 -5 -3 -10 1 -10 9 0 9 5 16 10 16 6 0 10 -4 10 -9z m66 -18
c-10 -10 -19 5 -10 18 6 11 8 11 12 0 2 -7 1 -15 -2 -18z m106 -5 c-8 -8 -9
-4 -5 13 4 13 8 18 11 10 2 -7 -1 -18 -6 -23z m-524 10 c7 -7 12 -17 12 -22 0
-6 -5 -3 -11 7 -5 9 -19 17 -29 17 -10 0 -24 -8 -29 -17 -6 -10 -11 -13 -11
-7 0 15 22 34 40 34 9 0 21 -5 28 -12z m-491 -30 c-3 -7 -5 -2 -5 12 0 14 2
19 5 13 2 -7 2 -19 0 -25z m380 10 c-3 -8 -6 -5 -6 6 -1 11 2 17 5 13 3 -3 4
-12 1 -19z m170 0 c-3 -8 -6 -5 -6 6 -1 11 2 17 5 13 3 -3 4 -12 1 -19z m323
2 c0 -5 5 -9 11 -7 6 1 14 -4 17 -12 3 -10 0 -12 -10 -8 -9 3 -21 0 -27 -6 -6
-6 -14 -7 -18 -2 -5 4 -3 10 4 12 7 2 9 11 6 19 -3 8 0 14 6 14 6 0 11 -4 11
-10z m80 -10 c8 -5 12 -11 9 -14 -3 -3 -14 1 -25 9 -21 16 -8 20 16 5z m-533
-52 c-3 -7 -5 -2 -5 12 0 14 2 19 5 13 2 -7 2 -19 0 -25z m90 0 c-3 -7 -5 -2
-5 12 0 14 2 19 5 13 2 -7 2 -19 0 -25z m402 6 c-13 -16 -12 -16 7 -6 16 9 21
8 21 -4 0 -7 -4 -14 -9 -14 -5 0 -6 -5 -2 -12 4 -6 -4 -3 -18 7 -22 17 -23 21
-9 37 19 22 29 14 10 -8z m-1002 -16 c-3 -7 -5 -2 -5 12 0 14 2 19 5 13 2 -7
2 -19 0 -25z m90 0 c-3 -7 -5 -2 -5 12 0 14 2 19 5 13 2 -7 2 -19 0 -25z
m1070 5 c-4 -3 1 -12 11 -19 16 -12 16 -13 0 -14 -9 0 -20 5 -23 10 -6 10 2
30 12 30 4 0 3 -3 0 -7z m-77 -33 c0 -5 -9 -6 -19 -3 -12 3 -17 11 -14 19 4
11 9 12 19 3 8 -6 14 -15 14 -19z m-1089 -54 c13 -9 18 -16 12 -16 -16 0 -63
58 -63 78 1 9 7 3 14 -14 8 -17 24 -39 37 -48z m899 59 c-7 -9 -15 -13 -17
-11 -7 7 7 26 19 26 6 0 6 -6 -2 -15z m-876 -11 c3 -8 2 -12 -4 -9 -6 3 -10
10 -10 16 0 14 7 11 14 -7z m57 -7 c-10 -9 -11 -8 -5 6 3 10 9 15 12 12 3 -3
0 -11 -7 -18z m436 -46 c10 -6 13 -11 6 -11 -16 0 -53 49 -53 69 1 9 7 2 14
-15 8 -18 22 -37 33 -43z m43 39 c10 0 24 8 30 18 7 10 10 11 7 3 -2 -8 -11
-19 -20 -25 -19 -12 -48 1 -54 25 -3 8 0 7 7 -3 6 -10 20 -18 30 -18z m73 -18
c-11 -14 -25 -28 -32 -30 -7 -2 -1 7 13 22 14 14 26 33 27 43 0 12 2 14 6 4 3
-7 -3 -25 -14 -39z m340 37 c-8 -8 -16 -8 -30 0 -16 9 -14 10 12 11 21 0 26
-3 18 -11z m186 -5 c18 -13 20 -18 10 -25 -8 -5 -20 -9 -28 -9 -11 0 -11 3 -1
15 10 13 9 15 -9 15 -12 0 -19 5 -16 10 9 14 17 13 44 -6z m-1039 -39 c-13
-14 -27 -25 -31 -25 -4 0 4 13 19 28 15 15 29 26 31 25 3 -2 -6 -14 -19 -28z
m900 24 c0 -5 -4 -8 -9 -5 -5 3 -12 -2 -15 -11 -6 -15 -8 -15 -16 -3 -7 11 -4
17 8 22 25 10 32 9 32 -3z m-1399 -20 c-24 -23 -35 -21 -25 5 3 9 16 16 27 16
20 0 20 0 -2 -21z m1466 8 c0 -7 -10 -14 -21 -14 -21 -2 -21 -2 -2 13 24 17
23 17 23 1z m-1473 -53 c3 -8 11 -12 17 -8 8 4 9 3 5 -4 -7 -12 -76 -17 -76
-6 0 8 32 33 41 34 4 0 10 -7 13 -16z m1361 6 c-3 -5 -11 -10 -16 -10 -6 0 -7
5 -4 10 3 6 11 10 16 10 6 0 7 -4 4 -10z m404 -17 c9 -10 8 -13 -6 -13 -12 0
-14 -3 -6 -8 7 -5 9 -13 4 -21 -7 -11 -10 -9 -16 8 -3 11 -11 21 -16 21 -5 0
-9 6 -9 14 0 18 32 17 49 -1z m-1674 -3 c3 -5 1 -10 -4 -10 -6 0 -11 5 -11 10
0 6 2 10 4 10 3 0 8 -4 11 -10z m1350 -10 c3 -5 2 -10 -4 -10 -5 0 -13 5 -16
10 -3 6 -2 10 4 10 5 0 13 -4 16 -10z m-115 -56 c0 -17 -8 -18 -24 -1 -18 17
-9 42 10 26 8 -6 14 -18 14 -25z m193 30 c-7 -3 -9 -13 -6 -22 4 -14 3 -14 -5
-2 -12 16 -7 30 11 29 9 0 9 -2 0 -5z m-1423 -20 c0 -8 -4 -12 -10 -9 -5 3
-10 10 -10 16 0 5 5 9 10 9 6 0 10 -7 10 -16z m1270 6 c0 -5 -7 -7 -15 -4 -8
4 -15 8 -15 10 0 2 7 4 15 4 8 0 15 -4 15 -10z m180 -10 c0 -5 -2 -10 -4 -10
-3 0 -8 5 -11 10 -3 6 -1 10 4 10 6 0 11 -4 11 -10z m-1540 -10 c0 -5 -2 -10
-4 -10 -3 0 -8 5 -11 10 -3 6 -1 10 4 10 6 0 11 -4 11 -10z"/>
<path d="M1251 754 c-7 -8 -10 -18 -7 -21 7 -7 36 16 36 28 0 13 -13 10 -29
-7z"/>
<path d="M1215 730 c3 -5 8 -10 11 -10 2 0 4 5 4 10 0 6 -5 10 -11 10 -5 0 -7
-4 -4 -10z"/>
<path d="M1222 678 c2 -17 10 -23 28 -23 18 0 26 6 28 23 2 12 -1 22 -7 22
-10 0 -15 -14 -12 -33 1 -5 -3 -6 -8 -2 -6 3 -8 12 -4 20 3 10 -1 15 -12 15
-11 0 -15 -7 -13 -22z"/>
<path d="M1115 870 c-3 -5 -1 -10 4 -10 6 0 11 5 11 10 0 6 -2 10 -4 10 -3 0
-8 -4 -11 -10z"/>
<path d="M1487 860 c-34 -27 -50 -80 -45 -142 15 -152 169 -158 196 -8 21 118
-73 211 -151 150z m93 -56 c6 -14 10 -43 10 -64 0 -64 -15 -90 -50 -90 -36 0
-50 27 -50 96 0 61 14 84 51 84 22 0 32 -6 39 -26z"/>
<path d="M1516 730 c-17 -6 -18 -7 -3 -13 9 -3 19 -2 23 4 9 15 2 18 -20 9z"/>
<path d="M1870 870 c-8 -5 -23 -11 -32 -14 -27 -8 -21 -25 6 -20 33 6 44 -28
21 -63 -17 -25 -17 -26 0 -20 9 4 19 7 21 7 2 0 4 7 4 16 0 8 4 13 9 10 5 -4
7 3 4 14 -3 11 -9 20 -13 20 -4 0 -7 14 -6 30 1 17 2 30 2 29 -1 0 -8 -4 -16
-9z"/>
<path d="M1715 860 c3 -5 8 -10 11 -10 2 0 4 5 4 10 0 6 -5 10 -11 10 -5 0 -7
-4 -4 -10z"/>
<path d="M1697 821 c-3 -13 -1 -18 9 -14 7 2 10 11 7 19 -7 19 -10 18 -16 -5z"/>
<path d="M1785 830 c-3 -5 -1 -10 4 -10 6 0 11 5 11 10 0 6 -2 10 -4 10 -3 0
-8 -4 -11 -10z"/>
<path d="M1970 829 c0 -5 5 -7 10 -4 6 3 10 8 10 11 0 2 -4 4 -10 4 -5 0 -10
-5 -10 -11z"/>
<path d="M0 724 c0 -58 3 -104 8 -102 26 13 59 27 73 31 22 7 38 109 19 115
-6 2 -27 17 -45 33 -18 16 -38 29 -44 29 -7 0 -11 -34 -11 -106z"/>
<path d="M1074 810 c0 -13 5 -19 13 -16 7 3 13 0 13 -6 0 -9 4 -8 13 1 10 10
8 15 -7 27 -26 19 -32 18 -32 -6z"/>
<path d="M813 795 c-19 -21 -16 -24 17 -23 24 1 30 5 29 22 0 12 -3 15 -6 9
-2 -7 -9 -13 -14 -13 -6 0 -7 5 -4 10 9 15 -8 11 -22 -5z"/>
<path d="M1743 796 c0 -8 6 -12 14 -9 7 3 10 9 7 14 -8 14 -21 11 -21 -5z"/>
<path d="M308 738 c-33 -35 -71 -80 -84 -101 -14 -21 -29 -35 -34 -32 -6 4
-10 -19 -10 -58 0 -74 9 -86 71 -97 39 -7 42 -6 54 24 16 38 70 120 125 189
46 57 48 74 19 111 -35 45 -71 36 -141 -36z"/>
<path d="M755 790 c3 -5 8 -10 11 -10 2 0 4 5 4 10 0 6 -5 10 -11 10 -5 0 -7
-4 -4 -10z"/>
<path d="M880 790 c0 -5 7 -7 15 -4 8 4 15 8 15 10 0 2 -7 4 -15 4 -8 0 -15
-4 -15 -10z"/>
<path d="M579 770 l-24 -20 27 13 c16 6 28 15 28 20 0 11 -6 9 -31 -13z"/>
<path d="M2367 770 c-3 -12 -10 -19 -16 -15 -7 4 -8 0 -4 -11 4 -11 8 -13 11
-6 7 21 25 13 19 -8 -3 -11 -2 -18 3 -15 4 3 11 -7 15 -22 4 -16 2 -29 -5 -33
-7 -4 -1 -7 14 -7 36 0 76 48 76 93 0 29 -3 34 -24 34 -13 0 -37 3 -53 6 -25
5 -31 2 -36 -16z"/>
<path d="M1788 774 c6 -3 10 -10 6 -15 -3 -5 7 -9 22 -9 32 0 22 15 -16 24
-14 3 -19 3 -12 0z"/>
<path d="M605 750 c3 -5 12 -7 20 -3 21 7 19 13 -6 13 -11 0 -18 -4 -14 -10z"/>
<path d="M2270 739 c0 -11 5 -17 10 -14 6 3 10 13 10 21 0 8 -4 14 -10 14 -5
0 -10 -9 -10 -21z"/>
<path d="M730 741 c0 -5 8 -15 18 -22 15 -12 16 -12 5 2 -7 9 -10 19 -6 22 3
4 1 7 -5 7 -7 0 -12 -4 -12 -9z"/>
<path d="M977 733 c-4 -3 -7 -11 -7 -17 0 -6 5 -5 12 2 6 6 9 14 7 17 -3 3 -9
2 -12 -2z"/>
<path d="M932 715 c1 -10 9 -20 16 -21 7 -1 8 0 2 3 -5 2 -8 9 -5 13 3 5 0 12
-6 15 -7 5 -10 1 -7 -10z"/>
<path d="M1082 718 c-15 -15 -16 -28 -2 -28 6 0 10 7 10 16 0 9 5 12 12 8 7
-4 8 -3 4 4 -9 15 -9 15 -24 0z"/>
<path d="M1923 723 c-13 -2 -23 -8 -23 -13 0 -18 15 -17 34 1 11 11 18 18 15
18 -2 -1 -14 -4 -26 -6z"/>
<path d="M1780 701 c0 -5 5 -13 10 -16 6 -3 10 -2 10 4 0 5 -4 13 -10 16 -5 3
-10 2 -10 -4z"/>
<path d="M1810 700 c0 -6 7 -10 15 -10 8 0 15 2 15 4 0 2 -7 6 -15 10 -8 3
-15 1 -15 -4z"/>
<path d="M698 693 c7 -3 16 -2 19 1 4 3 -2 6 -13 5 -11 0 -14 -3 -6 -6z"/>
<path d="M1337 659 c-4 -15 -2 -19 10 -15 8 3 19 6 25 6 5 0 3 7 -6 15 -19 20
-23 19 -29 -6z"/>
<path d="M580 645 c0 -8 2 -15 4 -15 2 0 6 7 10 15 3 8 1 15 -4 15 -6 0 -10
-7 -10 -15z"/>
<path d="M725 650 c-3 -5 -1 -10 4 -10 6 0 11 5 11 10 0 6 -2 10 -4 10 -3 0
-8 -4 -11 -10z"/>
<path d="M1820 656 c0 -2 7 -7 16 -10 8 -3 12 -2 9 4 -6 10 -25 14 -25 6z"/>
<path d="M1931 634 c0 -11 3 -14 6 -6 3 7 2 16 -1 19 -3 4 -6 -2 -5 -13z"/>
<path d="M1390 630 c-12 -8 -10 -10 8 -10 13 0 20 4 17 10 -7 12 -6 12 -25 0z"/>
<path d="M1966 625 c4 -8 10 -12 15 -9 11 6 2 24 -11 24 -5 0 -7 -7 -4 -15z"/>
<path d="M452 614 c-7 -8 -8 -14 -3 -14 10 0 25 19 20 25 -2 1 -10 -3 -17 -11z"/>
<path d="M1316 621 c-4 -7 -5 -15 -2 -18 9 -9 19 4 14 18 -4 11 -6 11 -12 0z"/>
<path d="M1680 616 c0 -9 5 -16 10 -16 6 0 10 4 10 9 0 6 -4 13 -10 16 -5 3
-10 -1 -10 -9z"/>
<path d="M1898 610 c-18 -21 -13 -26 11 -11 7 5 12 14 10 20 -3 7 -11 3 -21
-9z"/>
<path d="M401 606 c-8 -10 -9 -16 -1 -21 6 -3 7 -11 4 -17 -4 -7 -2 -8 5 -4 6
4 9 12 5 17 -3 5 0 16 6 24 7 9 8 15 2 15 -5 0 -15 -6 -21 -14z"/>
<path d="M720 606 c7 -7 14 -6 21 1 9 9 7 12 -9 10 -14 -1 -18 -5 -12 -11z"/>
<path d="M1340 600 c0 -5 5 -10 10 -10 6 0 10 5 10 10 0 6 -4 10 -10 10 -5 0
-10 -4 -10 -10z"/>
<path d="M1817 545 c-4 -8 -3 -16 1 -19 4 -3 9 4 9 15 2 23 -3 25 -10 4z"/>
<path d="M2476 518 c-22 -32 -20 -58 4 -58 17 0 20 7 20 40 0 46 -3 48 -24 18z"/>
<path d="M405 510 c-3 -6 1 -7 9 -4 18 7 21 14 7 14 -6 0 -13 -4 -16 -10z"/>
<path d="M360 490 c0 -5 5 -10 10 -10 6 0 10 5 10 10 0 6 -4 10 -10 10 -5 0
-10 -4 -10 -10z"/>
<path d="M1750 490 c0 -5 5 -10 11 -10 5 0 7 5 4 10 -3 6 -8 10 -11 10 -2 0
-4 -4 -4 -10z"/>
<path d="M1795 490 c3 -5 8 -10 11 -10 2 0 4 5 4 10 0 6 -5 10 -11 10 -5 0 -7
-4 -4 -10z"/>
<path d="M2246 481 c-4 -5 0 -11 6 -14 10 -3 10 -7 0 -19 -10 -13 -10 -17 2
-21 19 -8 29 19 16 44 -12 21 -16 23 -24 10z"/>
<path d="M330 470 c0 -5 5 -10 11 -10 5 0 7 5 4 10 -3 6 -8 10 -11 10 -2 0 -4
-4 -4 -10z"/>
<path d="M388 458 c6 -6 18 -8 28 -6 14 3 12 5 -9 10 -19 3 -25 2 -19 -4z"/>
<path d="M293 387 c-3 -5 -3 -10 -1 -12 7 -7 48 7 48 16 0 10 -40 7 -47 -4z"/>
<path d="M445 390 c3 -5 8 -10 11 -10 2 0 4 5 4 10 0 6 -5 10 -11 10 -5 0 -7
-4 -4 -10z"/>
<path d="M91 338 c-29 -31 -46 -59 -57 -98 -8 -30 -19 -63 -24 -72 -15 -28
-12 -65 10 -105 11 -21 20 -43 20 -50 0 -15 125 -19 134 -4 3 5 16 7 29 4 13
-3 18 -1 11 4 -6 5 -7 18 -3 33 4 14 7 20 8 13 1 -6 15 -16 31 -22 17 -5 30
-15 30 -21 0 -6 18 -9 44 -8 47 3 50 13 9 29 -19 7 -23 14 -17 32 9 31 14 34
24 17 8 -12 10 -12 10 -1 0 8 7 11 20 8 11 -3 20 0 20 6 0 7 3 22 6 33 4 14 0
23 -11 28 -17 6 -45 -14 -45 -34 0 -8 -5 -8 -17 -1 -14 8 -23 4 -39 -16 -12
-16 -26 -23 -33 -19 -8 5 1 16 24 32 20 13 39 22 43 20 10 -6 27 16 28 37 1 9
1 17 0 17 -13 4 -76 7 -64 4 9 -3 19 -13 23 -22 3 -9 3 -13 -1 -9 -4 4 -16 -1
-27 -10 -19 -17 -19 -17 -13 2 5 17 2 21 -16 20 -13 0 -29 -4 -35 -8 -16 -10
-16 3 -1 40 13 34 15 39 16 81 2 24 7 32 21 32 11 0 21 -6 24 -12 2 -8 8 -9
13 -4 5 5 4 11 -3 13 -7 2 -9 12 -6 21 4 13 3 14 -5 4 -12 -17 -41 -12 -64 11
-31 30 -71 22 -117 -25z m164 -268 c3 -5 -1 -10 -9 -10 -9 0 -16 5 -16 10 0 6
4 10 9 10 6 0 13 -4 16 -10z"/>
<path d="M371 361 c-7 -5 -11 -13 -7 -19 12 -19 -5 -43 -26 -36 -13 4 -19 1
-17 -8 4 -21 -12 -48 -28 -48 -8 0 -13 -6 -10 -12 2 -7 14 -12 26 -11 11 2 21
-1 21 -6 0 -5 9 -7 19 -4 12 3 17 11 14 19 -3 8 -8 12 -12 10 -4 -3 -13 0 -21
6 -13 8 -13 9 1 5 10 -3 24 9 41 37 26 43 25 83 -1 67z"/>
<path d="M320 339 c0 -5 5 -7 10 -4 6 3 10 8 10 11 0 2 -4 4 -10 4 -5 0 -10
-5 -10 -11z"/>
<path d="M616 337 c3 -10 9 -15 12 -12 3 3 0 11 -7 18 -10 9 -11 8 -5 -6z"/>
<path d="M250 291 c0 -11 -5 -23 -10 -26 -8 -5 -7 -11 0 -20 7 -8 9 -24 5 -37
-7 -23 -7 -23 11 -4 19 20 27 76 11 76 -4 0 -6 4 -2 9 3 5 1 12 -5 16 -5 3
-10 -3 -10 -14z"/>
<path d="M407 284 c6 -15 23 -19 23 -5 0 5 -7 11 -14 14 -10 4 -13 1 -9 -9z"/>
<path d="M398 252 c9 -7 10 -15 3 -35 -17 -45 1 -67 41 -52 10 4 13 16 10 35
-2 17 0 30 5 30 5 0 10 7 10 16 0 15 -2 15 -13 -1 -12 -16 -14 -16 -29 -1 -9
9 -22 16 -28 16 -8 0 -8 -3 1 -8z"/>
<path d="M490 247 c0 -7 9 -13 19 -13 15 0 17 3 9 13 -6 7 -14 13 -19 13 -5 0
-9 -6 -9 -13z"/>
<path d="M548 223 c7 -3 16 -2 19 1 4 3 -2 6 -13 5 -11 0 -14 -3 -6 -6z"/>
<path d="M450 130 c0 -5 5 -10 10 -10 6 0 10 5 10 10 0 6 -4 10 -10 10 -5 0
-10 -4 -10 -10z"/>
</g>
</svg>
